<?xml version="1.0" encoding="UTF-8"?>
<!--Generator: Apple Native CoreSVG 232.5-->
<!DOCTYPE svg
PUBLIC "-//W3C//DTD SVG 1.1//EN"
       "http://www.w3.org/Graphics/SVG/1.1/DTD/svg11.dtd">
<svg version="1.1" xmlns="http://www.w3.org/2000/svg" xmlns:xlink="http://www.w3.org/1999/xlink" width="17.9988" height="18.5645">
 <g>
  <rect height="18.5645" opacity="0" width="17.9988" x="0" y="0"/>
  <path d="M9.00141 18.5645C9.54828 18.5645 9.85102 18.2031 9.85102 17.5293L9.85102 11.9238C9.85102 9.58008 12.4487 6.18164 14.851 4.64844L15.6323 4.14062C15.9057 3.97461 16.0522 3.67188 16.0522 3.37891C16.0522 2.90039 15.7202 2.56836 15.2221 2.56836C14.978 2.56836 14.7143 2.65625 14.4799 2.8125L13.9623 3.1543C11.5893 4.73633 9.31391 7.73438 9.01117 9.24805L8.98188 9.24805C8.67914 7.72461 6.41352 4.73633 4.04047 3.1543L3.52289 2.8125C3.27875 2.65625 3.02484 2.56836 2.77094 2.56836C2.27289 2.56836 1.95063 2.92969 1.95063 3.36914C1.95063 3.66211 2.09711 3.97461 2.37055 4.14062L3.1518 4.64844C5.54438 6.18164 8.1518 9.58008 8.1518 11.9238L8.1518 17.5293C8.1518 18.2031 8.45453 18.5645 9.00141 18.5645ZM2.28266 5.83984L5.01703 2.29492C5.43695 1.74805 5.17328 1.30859 4.51899 1.2793L0.720157 1.11328C0.173282 1.08398-0.119686 1.44531 0.0463293 1.98242L1.16938 5.60547C1.36469 6.25 1.85297 6.39648 2.28266 5.83984ZM15.603 5.83008C16.0131 6.39648 16.5112 6.26953 16.7163 5.63477L17.9467 2.04102C18.1225 1.51367 17.8393 1.14258 17.3022 1.15234L13.4936 1.21094C12.8393 1.2207 12.5659 1.65039 12.9663 2.20703Z" fill="#000000" fill-opacity="0.85"/>
 </g>
</svg>
