<?xml version="1.0" encoding="UTF-8"?>
<!--Generator: Apple Native CoreSVG 232.5-->
<!DOCTYPE svg
PUBLIC "-//W3C//DTD SVG 1.1//EN"
       "http://www.w3.org/Graphics/SVG/1.1/DTD/svg11.dtd">
<svg version="1.1" xmlns="http://www.w3.org/2000/svg" xmlns:xlink="http://www.w3.org/1999/xlink" width="18.7402" height="22.9785">
 <g>
  <rect height="22.9785" opacity="0" width="18.7402" x="0" y="0"/>
  <path d="M0 16.8555C0 17.5684 0.546875 18.0371 1.47461 18.0371L5.5957 18.0371C5.67383 19.9219 7.14844 21.5723 9.20898 21.5723C11.2793 21.5723 12.7539 19.9316 12.832 18.0371L16.9531 18.0371C17.8711 18.0371 18.4277 17.5684 18.4277 16.8555C18.4277 15.8789 17.4316 15 16.5918 14.1309C15.9473 13.457 15.7715 12.0703 15.6934 10.9473C15.625 7.09961 14.6289 4.61914 12.0312 3.68164C11.6992 2.40234 10.6543 1.39648 9.20898 1.39648C7.77344 1.39648 6.71875 2.40234 6.39648 3.68164C3.79883 4.61914 2.80273 7.09961 2.73438 10.9473C2.65625 12.0703 2.48047 13.457 1.83594 14.1309C0.986328 15 0 15.8789 0 16.8555ZM1.89453 16.5625L1.89453 16.4453C2.07031 16.1621 2.65625 15.5859 3.16406 15.0195C3.86719 14.2383 4.19922 12.9785 4.28711 11.0742C4.36523 6.80664 5.63477 5.44922 7.30469 4.99023C7.54883 4.93164 7.68555 4.81445 7.69531 4.56055C7.72461 3.54492 8.31055 2.83203 9.20898 2.83203C10.1172 2.83203 10.6934 3.54492 10.7324 4.56055C10.7422 4.81445 10.8691 4.93164 11.1133 4.99023C12.793 5.44922 14.0625 6.80664 14.1406 11.0742C14.2285 12.9785 14.5605 14.2383 15.2539 15.0195C15.7715 15.5859 16.3477 16.1621 16.5234 16.4453L16.5234 16.5625ZM7.11914 18.0371L11.3086 18.0371C11.2305 19.3652 10.3906 20.1953 9.20898 20.1953C8.03711 20.1953 7.1875 19.3652 7.11914 18.0371Z" fill="#000000" fill-opacity="0.85"/>
  <path d="M14.0234 9.43359C16.6016 9.43359 18.7402 7.30469 18.7402 4.7168C18.7402 2.11914 16.6016 0 14.0234 0C11.4258 0 9.30664 2.11914 9.30664 4.7168C9.30664 7.30469 11.4258 9.43359 14.0234 9.43359Z" fill="#ffffff"/>
  <path d="M14.0234 8.0957C15.8691 8.0957 17.4121 6.57227 17.4121 4.7168C17.4121 2.85156 15.8691 1.32812 14.0234 1.32812C12.1582 1.32812 10.6348 2.85156 10.6348 4.7168C10.6348 6.57227 12.1582 8.0957 14.0234 8.0957Z" fill="#000000" fill-opacity="0.85"/>
 </g>
</svg>
