<?xml version="1.0" encoding="UTF-8"?>
<!--Generator: Apple Native CoreSVG 232.5-->
<!DOCTYPE svg
PUBLIC "-//W3C//DTD SVG 1.1//EN"
       "http://www.w3.org/Graphics/SVG/1.1/DTD/svg11.dtd">
<svg version="1.1" xmlns="http://www.w3.org/2000/svg" xmlns:xlink="http://www.w3.org/1999/xlink" width="13.1641" height="20.9863">
 <g>
  <rect height="20.9863" opacity="0" width="13.1641" x="0" y="0"/>
  <path d="M1.03516 20.9473C1.51367 20.9473 1.79688 20.6738 2.67578 19.8242L6.49414 16.0645C6.54297 16.0156 6.63086 16.0156 6.66992 16.0645L10.4883 19.8242C11.3672 20.6738 11.6504 20.9473 12.1289 20.9473C12.7832 20.9473 13.1641 20.5176 13.1641 19.7559L13.1641 2.80273C13.1641 0.947266 12.2363 0 10.4004 0L2.76367 0C0.927734 0 0 0.947266 0 2.80273L0 19.7559C0 20.5176 0.380859 20.9473 1.03516 20.9473ZM1.83594 18.3105C1.69922 18.4473 1.54297 18.4082 1.54297 18.2129L1.54297 2.82227C1.54297 1.98242 1.98242 1.54297 2.8418 1.54297L10.332 1.54297C11.1816 1.54297 11.6211 1.98242 11.6211 2.82227L11.6211 18.2129C11.6211 18.4082 11.4746 18.4473 11.3281 18.3105L7.09961 14.209C6.78711 13.9062 6.37695 13.9062 6.06445 14.209Z" fill="#000000" fill-opacity="0.85"/>
 </g>
</svg>
