<svg width="26.689500000000002" height="16.748" xmlns="http://www.w3.org/2000/svg" xmlns:svg="http://www.w3.org/2000/svg" xmlns:xlink="http://www.w3.org/1999/xlink">
 <g>
  <title>Layer 1</title>
  <g stroke="null" id="svg_1">
   <rect x="3.73755" y="4.1323" stroke="null" id="svg_2" width="20.1043" opacity="0" height="12.6157"/>
   <path stroke="null" id="svg_3" fill-opacity="0.85" fill="#000000" d="m13.79335,16.748c5.94372,0 10.04849,-4.8035 10.04849,-6.30415c0,-1.50801 -4.11208,-6.30419 -10.04849,-6.30419c-5.86281,0 -10.0558,4.79618 -10.0558,6.30419c0,1.50065 4.18563,6.30415 10.0558,6.30415zm0,-1.16221c-4.84767,0 -8.76848,-4.10473 -8.76848,-5.14194c0,-0.87538 3.92081,-5.14193 8.76848,-5.14193c4.82565,0 8.76116,4.26655 8.76116,5.14193c0,1.03721 -3.93551,5.14194 -8.76116,5.14194zm0,-1.02248c2.28774,0 4.12677,-1.87586 4.12677,-4.11945c0,-2.30246 -1.83902,-4.11942 -4.12677,-4.11942c-2.30243,0 -4.14149,1.81696 -4.14149,4.11942c0,2.2436 1.83905,4.11945 4.14149,4.11945zm0,-2.75123c-0.76502,0 -1.38292,-0.6179 -1.38292,-1.36823c0,-0.75768 0.6179,-1.36824 1.38292,-1.36824c0.75771,0 1.37561,0.61056 1.37561,1.36824c0,0.75032 -0.6179,1.36823 -1.37561,1.36823z"/>
  </g>
  <use x="5.84683" y="-23.28129" transform="matrix(0.6511035272329315,0,0,0.9182208137433668,4.776108118401416,21.065077225182126) " xlink:href="#svg_4" id="svg_5"/>
  <g id="svg_6"/>
 </g>
 <defs>
  <symbol id="svg_4" height="18.4473" width="14.8047" xmlns:xlink="http://www.w3.org/1999/xlink" xmlns="http://www.w3.org/2000/svg">
   <g>
    <rect y="0" x="0" opacity="0"/>
    <path fill-opacity="0.85" fill="#000000" d="m7.40234,18.4473c0.50782,0 0.86914,-0.3516 0.86914,-0.8594l0,-12.86134l-0.09765,-2.91015l-0.55664,0.19531l3.50581,3.83789l2.2266,2.1875c0.1563,0.15625 0.3809,0.23437 0.6152,0.23437c0.4883,0 0.8399,-0.37109 0.8399,-0.8496c0,-0.23438 -0.0781,-0.43946 -0.2637,-0.63477l-6.48436,-6.49414c-0.18555,-0.19531 -0.41016,-0.29297 -0.6543,-0.29297c-0.24414,0 -0.46875,0.09766 -0.65429,0.29297l-6.47461,6.49414c-0.18555,0.19531 -0.27344,0.40039 -0.27344,0.63477c0,0.47851 0.35156,0.8496 0.83984,0.8496c0.23438,0 0.46875,-0.07812 0.61524,-0.23437l2.22656,-2.1875l3.49609,-3.83789l-0.54687,-0.19531l-0.09766,2.91015l0,12.86134c0,0.5078 0.36133,0.8594 0.86914,0.8594z"/>
   </g>
  </symbol>
 </defs>
</svg>