<?xml version="1.0" encoding="UTF-8"?>
<!--Generator: Apple Native CoreSVG 232.5-->
<!DOCTYPE svg
PUBLIC "-//W3C//DTD SVG 1.1//EN"
       "http://www.w3.org/Graphics/SVG/1.1/DTD/svg11.dtd">
<svg version="1.1" xmlns="http://www.w3.org/2000/svg" xmlns:xlink="http://www.w3.org/1999/xlink" width="26.6895" height="20.5566">
 <g>
  <rect height="20.5566" opacity="0" width="26.6895" x="0" y="0"/>
  <path d="M13.3496 18.6523C21.2402 18.6523 26.6895 12.2754 26.6895 10.2832C26.6895 8.28125 21.2305 1.91406 13.3496 1.91406C5.56641 1.91406 0 8.28125 0 10.2832C0 12.2754 5.55664 18.6523 13.3496 18.6523ZM13.3496 17.1094C6.91406 17.1094 1.70898 11.6602 1.70898 10.2832C1.70898 9.12109 6.91406 3.45703 13.3496 3.45703C19.7559 3.45703 24.9805 9.12109 24.9805 10.2832C24.9805 11.6602 19.7559 17.1094 13.3496 17.1094ZM13.3496 15.752C16.3867 15.752 18.8281 13.2617 18.8281 10.2832C18.8281 7.22656 16.3867 4.81445 13.3496 4.81445C10.293 4.81445 7.85156 7.22656 7.85156 10.2832C7.85156 13.2617 10.293 15.752 13.3496 15.752ZM13.3496 12.0996C12.334 12.0996 11.5137 11.2793 11.5137 10.2832C11.5137 9.27734 12.334 8.4668 13.3496 8.4668C14.3555 8.4668 15.1758 9.27734 15.1758 10.2832C15.1758 11.2793 14.3555 12.0996 13.3496 12.0996Z" fill="#000000" fill-opacity="0.85"/>
  <path d="M19.9707 19.5508C20.7227 20.293 21.9141 20.3125 22.6562 19.541C23.4082 18.7598 23.3789 17.6074 22.6465 16.875L6.31836 0.556641C5.58594-0.185547 4.375-0.185547 3.63281 0.556641C2.90039 1.2793 2.90039 2.5 3.63281 3.23242Z" fill="#00000"/>
  <path d="M20.7812 18.7402C21.0742 19.043 21.5332 19.0625 21.8457 18.7402C22.1582 18.418 22.1387 17.9785 21.8457 17.6758L5.50781 1.35742C5.22461 1.06445 4.73633 1.06445 4.43359 1.35742C4.15039 1.64062 4.15039 2.13867 4.43359 2.42188Z" fill="#000000" fill-opacity="0.85"/>
 </g>
</svg>
