<?xml version="1.0" encoding="UTF-8"?>
<!--Generator: Apple Native CoreSVG 232.5-->
<!DOCTYPE svg
        PUBLIC "-//W3C//DTD SVG 1.1//EN"
        "http://www.w3.org/Graphics/SVG/1.1/DTD/svg11.dtd">
<svg version="1.1" xmlns="http://www.w3.org/2000/svg" xmlns:xlink="http://www.w3.org/1999/xlink" width="17.3438" height="19.1699">
 <g>
  <rect height="19.1699" opacity="0" width="17.3438" x="0" y="0"/>
  <path d="M0.742188 19.1699C1.15234 19.1699 1.48438 18.8477 1.48438 18.4375L1.48438 13.0078C1.72852 12.9004 2.64648 12.5488 4.08203 12.5488C7.69531 12.5488 9.96094 14.3164 13.3984 14.3164C14.9219 14.3164 15.4883 14.1504 16.2305 13.8184C16.9043 13.5156 17.3438 13.0078 17.3438 12.1094L17.3438 2.19727C17.3438 1.66992 16.8945 1.36719 16.3281 1.36719C15.8496 1.36719 14.9512 1.77734 13.2715 1.77734C9.83398 1.77734 7.57812 0.00976562 3.95508 0.00976562C2.43164 0.00976562 1.85547 0.175781 1.11328 0.507812C0.439453 0.810547 0 1.31836 0 2.20703L0 18.4375C0 18.8379 0.341797 19.1699 0.742188 19.1699ZM13.3984 12.8418C10.1465 12.8418 7.8418 11.0742 4.08203 11.0742C3.00781 11.0742 2.03125 11.2012 1.48438 11.4258L1.48438 2.25586C1.62109 1.93359 2.43164 1.48438 3.95508 1.48438C7.39258 1.48438 9.6875 3.25195 13.2715 3.25195C14.3359 3.25195 15.2148 3.125 15.8691 2.93945L15.8691 12.0703C15.7324 12.3926 14.9219 12.8418 13.3984 12.8418Z" fill="#000000" fill-opacity="0.85"/>
 </g>
</svg>
