<?xml version="1.0" encoding="UTF-8"?>
<!--Generator: Apple Native CoreSVG 232.5-->
<!DOCTYPE svg
PUBLIC "-//W3C//DTD SVG 1.1//EN"
       "http://www.w3.org/Graphics/SVG/1.1/DTD/svg11.dtd">
<svg version="1.1" xmlns="http://www.w3.org/2000/svg" xmlns:xlink="http://www.w3.org/1999/xlink" width="18.7793" height="21.5723">
 <g>
  <rect height="21.5723" opacity="0" width="18.7793" x="0" y="0"/>
  <path d="M4.25781 20.4688L14.5215 20.4688C16.3574 20.4688 17.373 19.502 17.373 17.6562L17.373 11.6602L17.4414 11.6602C18.3008 11.4746 18.7793 10.7812 18.7793 9.78516L18.7793 7.2168C18.7793 6.02539 18.1152 5.27344 16.9238 5.27344L14.9512 5.27344C15.4688 4.75586 15.7715 4.05273 15.7715 3.24219C15.7715 1.34766 14.2773 0 12.3828 0C11.0156 0 9.88281 0.751953 9.38477 2.06055C8.88672 0.751953 7.76367 0 6.38672 0C4.50195 0 2.99805 1.34766 2.99805 3.24219C2.99805 4.05273 3.30078 4.75586 3.82812 5.27344L1.85547 5.27344C0.712891 5.27344 0 6.02539 0 7.2168L0 9.78516C0 10.7812 0.46875 11.4746 1.32812 11.6602L1.39648 11.6602L1.39648 17.6562C1.39648 19.502 2.41211 20.4688 4.25781 20.4688ZM8.51562 19.0039L4.23828 19.0039C3.42773 19.0039 2.96875 18.5449 2.96875 17.7344L2.96875 11.7285L8.51562 11.7285ZM10.2539 19.0039L10.2539 11.7285L15.8008 11.7285L15.8008 17.7344C15.8008 18.5449 15.3418 19.0039 14.5312 19.0039ZM8.51562 10.2539L2.25586 10.2539C1.76758 10.2539 1.57227 10.0488 1.57227 9.56055L1.57227 7.43164C1.57227 6.94336 1.76758 6.74805 2.25586 6.74805L8.51562 6.74805ZM10.2539 10.2539L10.2539 6.74805L16.5332 6.74805C17.0215 6.74805 17.207 6.94336 17.207 7.43164L17.207 9.56055C17.207 10.0488 17.0215 10.2539 16.5332 10.2539ZM8.58398 5.27344L7.06055 5.27344C5.52734 5.27344 4.62891 4.4043 4.62891 3.33008C4.62891 2.25586 5.41016 1.63086 6.48438 1.63086C7.64648 1.63086 8.58398 2.50977 8.58398 3.95508ZM10.1855 5.27344L10.1855 3.95508C10.1855 2.50977 11.123 1.63086 12.2852 1.63086C13.3594 1.63086 14.1406 2.25586 14.1406 3.33008C14.1406 4.4043 13.252 5.27344 11.709 5.27344Z" fill="#000000" fill-opacity="0.85"/>
 </g>
</svg>
