<?xml version="1.0" encoding="UTF-8"?>
<!--Generator: Apple Native CoreSVG 232.5-->
<!DOCTYPE svg
PUBLIC "-//W3C//DTD SVG 1.1//EN"
       "http://www.w3.org/Graphics/SVG/1.1/DTD/svg11.dtd">
<svg version="1.1" xmlns="http://www.w3.org/2000/svg" xmlns:xlink="http://www.w3.org/1999/xlink" width="21.0547" height="17.9199">
 <g>
  <rect height="17.9199" opacity="0" width="21.0547" x="0" y="0"/>
  <path d="M9.54102 17.9102C10.2051 17.9102 10.6836 17.4219 10.6836 16.7676L10.6836 13.0371L10.9668 13.0371C14.7559 13.0371 17.1387 13.9941 18.8477 17.1875C19.1895 17.8125 19.6387 17.9102 20.0488 17.9102C20.5664 17.9102 21.0547 17.4414 21.0547 16.6016C21.0547 9.38477 17.998 4.88281 10.9668 4.88281L10.6836 4.88281L10.6836 1.19141C10.6836 0.537109 10.2051 0 9.52148 0C9.04297 0 8.7207 0.205078 8.20312 0.693359L0.498047 7.90039C0.117188 8.26172 0 8.62305 0 8.95508C0 9.27734 0.126953 9.64844 0.498047 10L8.20312 17.2754C8.67188 17.7148 9.0625 17.9102 9.54102 17.9102ZM8.98438 15.8105C8.92578 15.8105 8.86719 15.7812 8.81836 15.7227L1.85547 9.14062C1.77734 9.0625 1.74805 9.01367 1.74805 8.95508C1.74805 8.89648 1.77734 8.83789 1.85547 8.76953L8.80859 2.09961C8.85742 2.06055 8.91602 2.02148 8.97461 2.02148C9.0625 2.02148 9.11133 2.08008 9.11133 2.1582L9.11133 6.03516C9.11133 6.25977 9.21875 6.35742 9.44336 6.35742L10.752 6.35742C17.4512 6.35742 19.4727 11.0059 19.668 15.6152C19.668 15.6934 19.6387 15.7227 19.5898 15.7227C19.5508 15.7227 19.5312 15.6934 19.502 15.625C18.3496 13.1738 15.3906 11.5625 10.752 11.5625L9.44336 11.5625C9.21875 11.5625 9.11133 11.6602 9.11133 11.8848L9.11133 15.6641C9.11133 15.752 9.0625 15.8105 8.98438 15.8105Z" fill="#000000" fill-opacity="0.85"/>
 </g>
</svg>
