<?xml version="1.0" encoding="UTF-8"?>
<!--Generator: Apple Native CoreSVG 232.5-->
<!DOCTYPE svg
PUBLIC "-//W3C//DTD SVG 1.1//EN"
       "http://www.w3.org/Graphics/SVG/1.1/DTD/svg11.dtd">
<svg version="1.1" xmlns="http://www.w3.org/2000/svg" xmlns:xlink="http://www.w3.org/1999/xlink" width="19.9219" height="19.9316">
 <g>
  <rect height="19.9316" opacity="0" width="19.9219" x="0" y="0"/>
  <path d="M9.96094 19.9219C15.4102 19.9219 19.9219 15.4004 19.9219 9.96094C19.9219 4.51172 15.4004 0 9.95117 0C4.51172 0 0 4.51172 0 9.96094C0 15.4004 4.52148 19.9219 9.96094 19.9219ZM9.96094 18.2617C5.35156 18.2617 1.66992 14.5703 1.66992 9.96094C1.66992 5.35156 5.3418 1.66016 9.95117 1.66016C14.5605 1.66016 18.2617 5.35156 18.2617 9.96094C18.2617 14.5703 14.5703 18.2617 9.96094 18.2617Z" fill="#000000" fill-opacity="0.85"/>
  <path d="M9.95117 14.8535C11.9922 14.8535 13.3594 13.4961 13.3594 12.8516C13.3594 12.6172 13.1348 12.5098 12.9297 12.6074C12.2168 12.998 11.3672 13.4375 9.95117 13.4375C8.53516 13.4375 7.68555 12.9883 6.98242 12.6074C6.76758 12.5098 6.54297 12.6172 6.54297 12.8516C6.54297 13.4961 7.91016 14.8535 9.95117 14.8535ZM7.06055 9.0918C7.67578 9.0918 8.22266 8.53516 8.22266 7.75391C8.22266 6.96289 7.68555 6.40625 7.06055 6.40625C6.44531 6.40625 5.9082 6.96289 5.9082 7.75391C5.9082 8.53516 6.44531 9.0918 7.06055 9.0918ZM12.8516 9.0918C13.4668 9.0918 14.0137 8.53516 14.0137 7.75391C14.0137 6.96289 13.4766 6.40625 12.8516 6.40625C12.2363 6.40625 11.6992 6.96289 11.6992 7.75391C11.6992 8.53516 12.2363 9.0918 12.8516 9.0918Z" fill="#000000" fill-opacity="0.85"/>
 </g>
</svg>
